<svg width="398" height="59" viewBox="0 0 398 59" fill="none" xmlns="http://www.w3.org/2000/svg">
<path d="M0 38V0.239998H1.92V38H0ZM7.68 38V0.239998H13.44V38H7.68ZM15.36 38V0.239998H17.28V38H15.36ZM19.2 38V0.239998H21.12V38H19.2ZM23.04 38V0.239998H28.8V38H23.04ZM9.984 43.568H11.712L15.552 54.96L19.136 43.568H20.8L15.808 58.48H15.04L9.984 43.568ZM30.75 38V0.239998H32.67V38H30.75ZM34.59 38V0.239998H40.35V38H34.59ZM42.27 38V0.239998H44.19V38H42.27ZM49.95 38V0.239998H55.71V38H49.95ZM57.63 38V0.239998H59.55V38H57.63ZM42.078 57.008H45.022V44.976H42.27V43.568H49.63V44.976H46.686V57.008H49.758V58.416H42.078V57.008ZM61.5 38V0.239998H63.42V38H61.5ZM65.34 38V0.239998H67.26V38H65.34ZM69.18 38V0.239998H74.94V38H69.18ZM76.86 38V0.239998H78.78V38H76.86ZM84.54 38V0.239998H90.3V38H84.54ZM72.124 43.568H73.724L79.932 54.576V43.568H81.788V43.76C81.66 43.8453 81.596 43.952 81.596 44.08C81.5533 44.1653 81.532 44.3573 81.532 44.656V58.416H80.252L73.66 46.768V58.416H72.124V43.568ZM92.25 38V0.239998H98.01V38H92.25ZM99.93 38V0.239998H101.85V38H99.93ZM103.77 38V0.239998H105.69V38H103.77ZM111.45 38V0.239998H113.37V38H111.45ZM115.29 38V0.239998H121.05V38H115.29ZM109.978 54.064H105.178L103.706 58.416H102.042L107.482 43.312H107.674L113.178 58.416H111.45L109.978 54.064ZM109.53 52.784L107.61 47.152L105.626 52.784H109.53ZM123 38V0.239998H128.76V38H123ZM134.52 38V0.239998H136.44V38H134.52ZM138.36 38V0.239998H144.12V38H138.36ZM146.04 38V0.239998H147.96V38H146.04ZM149.88 38V0.239998H151.8V38H149.88ZM137.656 52.592L133.048 43.568H134.968L138.616 50.8L141.88 43.568H143.672L139.448 52.592V58.416H137.656V52.592ZM153.75 38V0.239998H155.67V38H153.75ZM161.43 38V0.239998H167.19V38H161.43ZM169.11 38V0.239998H171.03V38H169.11ZM172.95 38V0.239998H178.71V38H172.95ZM180.63 38V0.239998H182.55V38H180.63ZM184.5 38V0.239998H190.26V38H184.5ZM192.18 38V0.239998H194.1V38H192.18ZM196.02 38V0.239998H197.94V38H196.02ZM199.86 38V0.239998H201.78V38H199.86ZM207.54 38V0.239998H213.3V38H207.54ZM197.876 50.992L196.66 52.272V58.416H194.932V43.568H196.916V43.76C196.831 43.8453 196.767 43.952 196.724 44.08C196.681 44.1653 196.66 44.3573 196.66 44.656V50.416L202.868 43.504C203.252 43.5467 203.657 43.568 204.084 43.568H204.724L199.092 49.968L205.108 58.416L202.996 58.48L197.876 50.992ZM215.25 38V0.239998H217.17V38H215.25ZM219.09 38V0.239998H224.85V38H219.09ZM226.77 38V0.239998H228.69V38H226.77ZM234.45 38V0.239998H240.21V38H234.45ZM242.13 38V0.239998H244.05V38H242.13ZM226.578 57.008H229.522V44.976H226.77V43.568H234.13V44.976H231.186V57.008H234.258V58.416H226.578V57.008ZM246 38V0.239998H247.92V38H246ZM249.84 38V0.239998H255.6V38H249.84ZM257.52 38V0.239998H259.44V38H257.52ZM261.36 38V0.239998H267.12V38H261.36ZM272.88 38V0.239998H274.8V38H272.88ZM261.296 58.672C259.376 58.672 257.819 58.032 256.624 56.752L257.52 55.28L257.584 55.088L257.776 55.152C257.776 55.1947 257.797 55.28 257.84 55.408C257.84 55.4933 257.883 55.6 257.968 55.728C258.011 55.8133 258.096 55.8987 258.224 55.984C259.12 56.752 260.229 57.136 261.552 57.136C262.405 57.136 263.131 56.9013 263.728 56.432C264.325 55.92 264.624 55.3227 264.624 54.64C264.624 54.1707 264.517 53.7653 264.304 53.424C264.133 53.1253 263.813 52.8267 263.344 52.528C262.875 52.2293 262.149 51.8667 261.168 51.44C259.717 50.8853 258.672 50.2453 258.032 49.52C257.435 48.7947 257.136 47.984 257.136 47.088C257.136 45.9787 257.541 45.0827 258.352 44.4C259.163 43.7173 260.251 43.376 261.616 43.376C262.427 43.376 263.195 43.5467 263.92 43.888C264.603 44.2293 265.221 44.6773 265.776 45.232L264.688 46.704L264.56 46.576C264.56 46.5333 264.539 46.4693 264.496 46.384C264.496 46.256 264.453 46.1493 264.368 46.064C264.325 45.936 264.24 45.8293 264.112 45.744C263.771 45.4027 263.365 45.1467 262.896 44.976C262.469 44.848 261.957 44.784 261.36 44.784C260.592 44.784 259.995 44.9973 259.568 45.424C259.099 45.8507 258.864 46.3627 258.864 46.96C258.864 47.4293 258.949 47.8347 259.12 48.176C259.333 48.5173 259.696 48.8373 260.208 49.136C260.72 49.4773 261.488 49.84 262.512 50.224C263.92 50.8213 264.901 51.4187 265.456 52.016C265.968 52.656 266.224 53.4453 266.224 54.384C266.224 55.1093 266.053 55.792 265.712 56.432C265.328 57.072 264.773 57.6053 264.048 58.032C263.28 58.4587 262.363 58.672 261.296 58.672ZM276.75 38V0.239998H282.51V38H276.75ZM284.43 38V0.239998H286.35V38H284.43ZM288.27 38V0.239998H290.19V38H288.27ZM295.95 38V0.239998H301.71V38H295.95ZM303.63 38V0.239998H305.55V38H303.63ZM287.374 43.568H289.294V43.76C289.209 43.8453 289.145 43.952 289.102 44.08C289.102 44.1653 289.102 44.3573 289.102 44.656V49.904H294.862V43.568H296.846V43.76C296.761 43.8453 296.697 43.952 296.654 44.08C296.654 44.1653 296.654 44.3573 296.654 44.656V58.416H294.862V51.376H289.102V58.416H287.374V43.568ZM307.5 38V0.239998H313.26V38H307.5ZM315.18 38V0.239998H317.1V38H315.18ZM319.02 38V0.239998H324.78V38H319.02ZM326.7 38V0.239998H328.62V38H326.7ZM334.38 38V0.239998H336.3V38H334.38ZM322.86 58.672C321.153 58.672 319.852 58.0107 318.956 56.688C318.017 55.3653 317.548 53.488 317.548 51.056C317.548 48.7093 318.017 46.8533 318.956 45.488C319.895 44.1653 321.196 43.504 322.86 43.504C324.524 43.504 325.825 44.1653 326.764 45.488C327.703 46.8533 328.172 48.7093 328.172 51.056C328.172 53.488 327.703 55.3653 326.764 56.688C325.868 58.0107 324.567 58.672 322.86 58.672ZM322.86 57.2C324.012 57.2 324.887 56.688 325.484 55.664C326.124 54.5973 326.444 53.0613 326.444 51.056C326.444 49.1787 326.124 47.6853 325.484 46.576C324.844 45.5093 323.969 44.976 322.86 44.976C321.751 44.976 320.876 45.5093 320.236 46.576C319.596 47.6853 319.276 49.1787 319.276 51.056C319.276 53.0613 319.575 54.5973 320.172 55.664C320.812 56.688 321.708 57.2 322.86 57.2ZM338.25 38V0.239998H344.01V38H338.25ZM345.93 38V0.239998H347.85V38H345.93ZM349.77 38V0.239998H351.69V38H349.77ZM353.61 38V0.239998H359.37V38H353.61ZM365.13 38V0.239998H367.05V38H365.13ZM349.002 43.568H353.354C355.061 43.568 356.298 43.952 357.066 44.72C357.877 45.4453 358.282 46.4907 358.282 47.856C358.282 48.7093 358.005 49.52 357.45 50.288C356.895 51.056 356.17 51.568 355.274 51.824L358.73 58.416H356.874L353.546 51.888H350.666V58.416H349.002V43.568ZM353.546 50.416C354.57 50.416 355.338 50.1813 355.85 49.712C356.319 49.2853 356.554 48.6667 356.554 47.856C356.554 47.0453 356.319 46.384 355.85 45.872C355.338 45.4027 354.57 45.168 353.546 45.168H350.666V50.416H353.546ZM369 38V0.239998H374.76V38H369ZM376.68 38V0.239998H378.6V38H376.68ZM380.52 38V0.239998H386.28V38H380.52ZM392.04 38V0.239998H393.96V38H392.04ZM395.88 38V0.239998H397.8V38H395.88ZM379.816 43.568H388.904V45.04H381.352V49.904H387.624V51.44H381.352V56.944H388.84V58.416H379.816V43.568Z" fill="#0E0E0E"/>
</svg>
